<svg width="24" height="24" viewBox="0 0 24 24" fill="none" xmlns="http://www.w3.org/2000/svg">
<g clip-path="url(#clip0_367_72)">
<path fill-rule="evenodd" clip-rule="evenodd" d="M11.2275 20.4319C11.1441 20.7657 10.8441 20.9999 10.5 21C10.4368 21.0003 10.3738 20.9927 10.3125 20.9775L7.3125 20.2275C7.22898 20.2065 7.1497 20.1713 7.07812 20.1234L4.82812 18.6234C4.48355 18.3935 4.39058 17.9279 4.62047 17.5833C4.85036 17.2387 5.31605 17.1457 5.66062 17.3756L7.80188 18.8034L10.6763 19.5225C10.8702 19.5695 11.0374 19.6919 11.1409 19.8626C11.2444 20.0333 11.2755 20.2382 11.2275 20.4319ZM23.6672 11.3888C23.5429 11.7663 23.2729 12.0785 22.9172 12.2559L20.6972 13.3659L15.5334 18.5306C15.347 18.7169 15.0765 18.7916 14.8209 18.7275L8.82094 17.2275C8.72969 17.2046 8.64353 17.1649 8.56688 17.1103L3.36188 13.3941L1.08563 12.2559C0.344835 11.8856 0.0443487 10.985 0.414375 10.2441L2.74406 5.58563C3.11438 4.84483 4.015 4.54435 4.75594 4.91437L6.82406 5.94562L11.7928 4.52625C11.9276 4.48769 12.0705 4.48769 12.2053 4.52625L17.1741 5.94562L19.2422 4.91437C19.9831 4.54435 20.8837 4.84483 21.2541 5.58563L23.5837 10.2441C23.7632 10.5992 23.7933 11.0113 23.6672 11.3888ZM19.3378 12.6019L16.7869 7.5H13.8038L9.75 11.4375C10.9369 12.1959 12.7978 12.405 14.4675 10.7222C14.7376 10.45 15.1695 10.4253 15.4688 10.665L18.6947 13.2497L19.3378 12.6019ZM1.75594 10.9144L3.41438 11.7441L5.74406 7.08563L4.08563 6.25594L1.75594 10.9144ZM17.625 14.3119L15.0272 12.2316C13.1953 13.7316 10.8694 13.9294 8.94188 12.7003C8.55782 12.456 8.30547 12.0505 8.25589 11.5981C8.2063 11.1456 8.36485 10.6951 8.68688 10.3734C8.68913 10.3707 8.69164 10.3682 8.69438 10.3659L12.9 6.28687L12 6.03L7.27313 7.38094L4.70719 12.5119L9.31969 15.8072L14.7703 17.1694L17.625 14.3119ZM22.2412 10.9144L19.9144 6.25594L18.2559 7.08563L20.5856 11.7441L22.2412 10.9144Z" fill="#1C170D"/>
</g>
<defs>
<clipPath id="clip0_367_72">
<rect width="24" height="24" fill="white"/>
</clipPath>
</defs>
</svg>
